<mxfile host="app.diagrams.net" modified="2024-06-18T12:10:49.785Z" agent="Mozilla/5.0 (Macintosh; Intel Mac OS X 10_15_7) AppleWebKit/537.36 (KHTML, like Gecko) Chrome/125.0.0.0 Safari/537.36" etag="udt0Q63RB0xK_i7qm5AI" version="24.4.8" type="device">
  <diagram name="페이지-1" id="IB4tWgnZJwMaK_PhMg6c">
    <mxGraphModel dx="1307" dy="827" grid="1" gridSize="10" guides="1" tooltips="1" connect="1" arrows="1" fold="1" page="1" pageScale="1" pageWidth="827" pageHeight="1169" math="0" shadow="0">
      <root>
        <mxCell id="0" />
        <mxCell id="1" parent="0" />
        <mxCell id="sWf0NImkzpk0HPIp3ehi-1" value="" style="rounded=0;whiteSpace=wrap;html=1;fillColor=#d5e8d4;strokeColor=#82b366;" vertex="1" parent="1">
          <mxGeometry x="390" y="280" width="160" height="100" as="geometry" />
        </mxCell>
        <mxCell id="mD_qEcfemP99iUePYK75-1" value="" style="rounded=0;whiteSpace=wrap;html=1;fillColor=#d5e8d4;strokeColor=#82b366;" parent="1" vertex="1">
          <mxGeometry x="130" y="280" width="170" height="90" as="geometry" />
        </mxCell>
        <mxCell id="mD_qEcfemP99iUePYK75-3" value="" style="shape=image;verticalLabelPosition=bottom;labelBackgroundColor=default;verticalAlign=top;aspect=fixed;imageAspect=0;image=data:image/png,iVBORw0KGgoAAAANSUhEUgAAARwAAACxCAMAAAAh3/JWAAAAt1BMVEX///8AlTkBljqHxpkAkCYAlTcAkSz///4AkjNhs3bP6dmn1rYAkzYAljcAjyz///1XsnAun04AjiD//f8AjyhPrmoAlDAAjhwAkikDlDzm9+u638cAkiT6//uQyqPu/PGcz63Y7uBvu4bL6tUypVoWmkWPyJ15voyz3cBUsHXt+PTB4tDb8eVjt4Cr27gfnkxIpWY8qGCt07SPx6Gz2cRfsnwrnFR4vZDR6uDV8Nmh1q/G5NdqtYN+XvvlAAAP6ElEQVR4nO2djXabOBOGkYyAxMhOKCbIP4nj2HHiJHW8/brd7fb+r+vjH0mMBE7TWnb67jlbYgNGDzOj0SDAssyR67qWe+iDMFUZmOGhj8JUjfv920Mfg5FyrU3PcRx7Mc7964949fGAIkQG/rVl/Qk9tZI4c7e0fcQQQpSEq4dDH5A5StCMzwIPIVyIBqPbP8ZTaHYfeYhilOJJ/ocYiZz15tBHdXBl1vGwinFOJbMdhFNGMZoPrY+d9iRtPx8FBPNwMj4YE/ty8qHZWNbNIoiQKFz8y6Lg8fnQx3dIXQ8cUtEo4RRmRBmKgvUssZ4PmTRPVk4kkeHgZHKi/qGP8iC6fbT9GgOuyIic0HT5dOgj/e3arMMs2BDBdMpMpwzPKTTPPktGFNanQx/xb1LSzjmOpfgrwsFVv44Ri53e7NDH/Pv0dDklgo2UaFDVlZeg8sgcf4wRhTu0ni8CvxGGQb+qRezluXX6Q4qb9UDObEQwvCFxX0b2y/jQx/5LlZz4PnMwIl3gSOaDURRdn2zoSQtYd7vQb+LAop3wiIrl/AM/3Kah5xR9y7XGX/OxAuYl/SWAa1iUd7U7zTrqrBdGUtTdG06Cx17cZMZzKvYzHCYt+YynUoonQ5D8rEp0RC9DsXd96Aa9p9LCxM5m8gjzTcIMIXv7dEKXcMY/Qk/RRcltF0I0kPDgZLxBPXt0KqFndo3iTmSQkATC2WDxmeN8O4k66mTl5NcVkJTXIfVniE9zoCiNSUyPvJiRBpvXgDaaVodaNRzIpiqahCR47L+Pu5hxswg8JCV07wEnlz894jrqbB5FrNk4rsFqEjwU1VqERXHvSEPPZGv7KQBcUOBzPoGCYE8AKZlXBSyNzOxz0q0fVUaYJCG3FzbNL0Hhun18maZqch1lNXDk7LlYoti3d3dHlvXM1mFEud5YbraYy4jfVl8Jf1RgUU07l2efHYtvDYdDy51HTjOzwYDy1texlrMoOeERMNWelv7pTdM6qmu8d6XHN7kckLasTxNn+aZ3FHXwZ+sYBqO3j4lH4d8KJ9kZDXfnh265XsmZ2/QcRRWUb0rZcdW5j5AMib2X7Ijg7pLQEy4Mr6P2cUhbjaazRey3A+r4htZRM3e/W04pfOB8034ejnI0Zq8mhwah0PglIFipugW1VwHf5R31G5UkzcHrrYFxedYbOPAYAcsLSO1aUGgRQep/AbPIXpiU9WTpxedt3JhMouJQWIhoNMLKwFhVgTQP2fXqiVs79Lsxvbo7TKugA0rlQ1aKh8MNLOAVhW8YY401mnvOJoWZMqKYLaY+pb5IBQuLibyB4wwGno/KPlxqkowDaDd1wtAZ+I2RiHRxNOm4wrObQ1MptLDh6TWlaDo8DHfr+V/9L4tLO/RQmiNiDJJUikbB8lv/r/l6GaRTnkpDbUYhltJydoemkskdD6rMBm4kJvFqXp3JzcPIjlHjmkwrG/ulLKrfXgQRLf2rCSe3vuDuQDxE3U35gwLiL7Gl+TXPi5DqaTT2Q71JHmWzUPLgqdLw6hBCM0rM5zZ0BnHZQkbT4+R7j2T5aRW1p4s1mcSnREN4shVgqj+MgyMcaQUnmMs9a3L2ZyOnOxyE7M/SLuYAHSGKmQQHdqhU0aiRdWSVl4uoTupUyV35qffa6Jp3nj6RdEyBA+av5d/Bf4rtLuG4AYDCQXPI9L9A75cmWQ7XErGdiKm2G7OuYYeQ5ohgZpPqR/hzUSYVRwHHe9Ft2AkPJlDSsvWJGo5BbqWr4Dg91XZDq3+FgBSnGXy8M2DzCw/62YrUwBQ4tZ00D1YNx3Wtno1VG3LNxWo4mB94Yr5waIzlvA3OMPnv65TRXwPHGMvRuJUGTqrZMuowcWcPt6pkDBzVwCELjDo4btJl+XJQrkNr+a8KTiN9qLY3CY7acNrgWOcDwtW6YP/Swck2a/ysQXB05q13q0QPAaJMvBizLxxIpuU5GOp62uC41r0Et+koHWJOw7NMg4Mgv2iDkwyzzmKs9Khsp9reqjluyY7DQLfaH06qpMt6TzgZHWPgqHurtq48lWvdrAiqHFLYUf6Z1q3kUnPxgTFwICglrS6WY916VIkX6QKy0tjMsZyfhmNNAp1f6eAoNjIHji797wRnaF0HMttqSe9Wql82Bg6RGsQXrLpZjmX9mLIqdIkpYWuGzNlpvaUxcOQzzoWPDgG50E49r+cNYytz4NRH+RNwNitla4964CmcMikIdIZjnStNZ1846TEYkyHDJbnciDrDca1Jek8WH0UwzoOINiDzORa3aAwc+Oyp4bjQLQvJCH1+VW0oxOaucHhOhlUCYYFwLhXzi37EDOqau7iV3NUZE3OgNKf8CHSr1U7x4I5dxICk6agDsjTuE0aDIJxL+ys892qz9TAj8p70eQ74u+Z05ZqDVMDxA0Wcfo6k2SXtcDDExhw4RIyF7W51ieiV4rkmE4fyRpj9vy0gNyOPQXBApy9oKSyHkhCaju+6eZclpkuRvmRRWamRMecNcBDyqWI2/jqQ4bTUc8yGA3YbWFOySOEg7xKcjO9aowG3fSschYyBA5y4Sgo4ScNofAHdgOhas2JyCi4vfO8Px6CYo2GjgcNIqOiyxvmcuKofOupRuRgiMH/9WgeHErjLGlpPoqe2wCn6J/EUGQSHrzeJPbqqt8oz/fAOTpX7QfkMgw5woEtdZsFRWLfactLGsIiN4VS5V1xjboPTvE5+MnCSdi8V94+dObSE0zoFxWg4hc/LPqXLcyqXcB4t6xPQZ822XrWfvYtdyKB6zt7T3jg4zP4G3+AyplVLlWOr+iw08kBj4GjYtMIh6ApoRvoM7fOwdCzV8EEDx5xpb7pZa21wkmQwUDzqpR/mA/T93MrAUXl1WNVSZziMRoqyac/OO/SOcIRzZAwcVJj/2yyHsOhvRdn06zS7saot5kAyCs7+Yyt+pQt417NlRDsEZEimBWSZj/rSjAwHJV0WINfasEhjOfmPwohMgwOYj2LCZAMOCvpwpnxut8BRySi3QuBp7AxHedthegvAKcDBGDBy9cCzyqmzJeooHk52b3cZlTeSQGPg/EyGXJmOt9q4YKr81WmDI5iqaXB05t3VrVB2Sx8kdxnuAcc4y4F6jNLI9XAw713hAv6BjaPvyqVLOcbB4QpxEiltzOGCTrLM7Gv4IRT/XAAfN/IcLMgYOLWd8HExX1TC4TCW/9JgAo/QnwFk0uVgjE8LTn0/SBUwYvCVaEMLeAPhEcERXR7XNXYYDqH8/MZa0fam6+NL0oAs/KJIyRg4YqVbbK4Ojny2E8WjWcdn34iTl7DBMWdfONkdaAAbjFRdVkPHB4fHpIUDFMeLzYKOz58fedr7ro2B8x4ZciVy1e2JbccChz/xfC+E1L0VkXu1ag8Me/90+dlRHpDB9NNsOHWz2wae0nXcdJGuujxTaiTeaSPMu0MmziZtnseuJQtuIIFQ/NqhwxrlGTJoPCbBIdx0M1latxKtpu554h/tD7MrLUchg9zqfeDUU7PD+3Y4/rHAqZtWtbOLWykr5CRofU/cqK4EChf3imVj4Ag2gIXpOfo8p2E9Vd5Mwn9bxhFcVy7ZHzLLcvaH08hoy2blnzNM2Y3es2Q4yFQ40oHxh6qahyzi5NP/woK8nf7hxhIc7rexuW4lTUNRwJFmZQEig68WXFTOlcGRT0W9P2PgAAZTtVkBp1yd4yp5GWXTni7sjLK7gwXrM9JyyN5w/AYQsX3pHmh6pU+tUXHrdBMOMgoO0mignKQNSXQREt6pk8HG2Eo8P8ZkyEKskXKXCHja24ZS2cgkeytEvbHSs1ZURlLtJrNYU+AIZ12CQ7by+q71r90IoSAcRKO/Z1D9OCF2ExQzmxRwTHMrqYRcKJBffze0vji6ySMCX/CSVQp47gBv6OFkEBwsn/26obHkV+m8El+wEwWhvO32Ggw7mxWV1pZ2ZRAc6Rj59rIkqlatSxIX11qUhgNikdhieyHTSf960T4U10C3UtkC5edPDK3vg+oR4Uo4fLiOd8+NbHAd6tiYBgeqVpZLPuPn3syDllcYyXSYP12LcwZvHkOm3ke+vUlwOG8QSsNZgkbCdXlX3t1rAJNUhJ58EDsYvEyq0un43osQ1483d5V5Y2vN43fIna08CA5vASS6Wva+f5+/rIJIenODspEVnOyryA6XL/fz+ZeXbRAraxXVz2MSG/LKoifbqyvrcDsJI47jxB5jWKjf5U2vExSuhcIa6fwdGg3COGaJ0WDKYahHHvWZwV4wN+WlIbcXARGCAICIiN/Wi6DBKKWLbYUYQ/bSjBcb5Jpsp80nSygbyH0HroXVfwFw5A+og80IxoVca3btDRpT2bRJHgwN2KJwvA67ydbxnLRvM+RNM6U2iyufMaGIJS+J+YsCT/PrzogJxuTq0cy3dd8ug+IRrBgS30yut6+YQOspdwYrCramvhrNsh5WMTkMnLxMgeepixvmUoWS0HPvOah85SBWus/ekilzDliQRTgafFPcTWuMxi82odoI0bAKYA2JSgd8NByZGWwqZQZ9t7S1M2eE5naC04FNvDJiuNBBfTZlEgD+QgHCb3wzWrkXmTWKnY7TwQ6vYRJ67Kj9ofxiA9tXUa3jBT9aro6ao+wwx2e2h/knqyouEzTNgA+7/DeNfRRLxB6Bk5eN1t2yuvVZMg6x09kLDr+P7F8abo8l2HBKYvN37GChzULD+FG8Ekm9sbhUfhF5PTNfF9yixNBvFmFEsJzpAAMDuXcHEBXfcZc4EKb2oyFVm/2VGM/zKIzk11DLcNDb4CASLjUXRI1X+tCpyeUUbKXAQwFCu2GYvdx+aOZYobOuSfq0l5acGfwY4pItMuQNjjPYiBqmxYzQazYfC+2GvpCqXJy1+fbZ8xF7VK20Cee75oiC76LUXRawEvLDtDABPCjuWDVZxdBlh72FKYs9o6qg76IvjrPPiEKlaPrtBIKNqKRXSbKe9ALXmwmlj/mK7EfFvflHr/NdSDBrZDZcZEFCkVAMQixJ+gyugv68HlYhf/ENwV082LVjFPvXpxOEIc16g/RV7ATp4cgOlXwW2QtT3l7/i+SmxYyAJFlc0zzUQ0/EmB+8Hl9hYk9l75u+W05b3uUuy7ePsTCxv7KT32dxs8wMVnhSWyKOdz07dbPhdNOLGvPWGsWL4sNo+nK0hYk3yP1kWc8XoWqmtiAS7tKHtX8Ys0mVFTNCAqWE9bWJhF6MP0SwAfTdc4ArXDUc6oT3JzdW6KiZtVmHXoWES4/zj7wgCTbwa1c+hp5HU5/PBMuxBcPMXv536KM7uCaXtlQoTDssGps1Petguo4cIg1D8+lZnz6yT5VKixmsTHAYwjQ42cLEW3S+C4uneGFKplvFA5I/rB62Icmq6A6apy/kOfJLLu+s2bUXRZ4zWJ94YeItSosZPxh7vP1YI4VuypDMZtXiHxmu/wMRFt09T+uqxQAAAABJRU5ErkJggg==;" parent="1" vertex="1">
          <mxGeometry x="140" y="300" width="64.18" height="40" as="geometry" />
        </mxCell>
        <mxCell id="mD_qEcfemP99iUePYK75-4" style="edgeStyle=orthogonalEdgeStyle;rounded=0;orthogonalLoop=1;jettySize=auto;html=1;exitX=1;exitY=1;exitDx=0;exitDy=0;entryX=1;entryY=0.75;entryDx=0;entryDy=0;" parent="1" source="mD_qEcfemP99iUePYK75-1" target="mD_qEcfemP99iUePYK75-1" edge="1">
          <mxGeometry relative="1" as="geometry" />
        </mxCell>
        <mxCell id="598wJvT_sXEChFHmgaJK-1" value="" style="shape=image;verticalLabelPosition=bottom;labelBackgroundColor=default;verticalAlign=top;aspect=fixed;imageAspect=0;image=data:image/png,iVBORw0KGgoAAAANSUhEUgAAAOEAAADhCAMAAAAJbSJIAAAAxlBMVEX///9BuIM1SV48t4Fow5gwRVtgbXxBu4Q1RF01Rl01R100QlxBvIQ2tX41tX0wtHv0+/im28Lq9/FAqn9BsYGw38k2TWDU7uLL6ts+lnih2b86cGs3VWM4XGUnPlU6dW1QvYw2UGFddX6T1LZ3yqQ/pX1Wv5CH0K44Zmi+5dPe8uk7gHE9kHY8inQ+nHp+jpa4xsdMZHGTpKnh6ehrg4oXNE7Q3NururxDXmzr8PAZQlQQM0zd5eWbrK88hHI5aml2lZc0N1r5XN90AAAJP0lEQVR4nO2daXvaOhSEMU6ujcEsJglZachSErJ2Sbqlae///1M3t0QpAtmesSVb5vH7uWArgjOHmSO30aipqampqampqampqakBmG4QnPwDcpfhTu7QNz9hbnnaGHVdGG/P38R4uKcXeP8Avre/5+G33B01GmddB8a7aDUhNj/0yQX2P2xib9268PAb7p69vHWE/3vHG+4E2H2MP5Ir/DjG3jjYGRIrdKL/33vAbOJVG72RT9QCP6F/uvYVs4WD+efjvYu/ZusQvJPNz9QKP4Of0eBwC79Z9/3rd+Wyh7/IuwY3sfnwSCzw8QF81/Y1sYW9S/H+G8QmekdosTkhVniClpkjYoHuxtv7z5hv4rkP/rnHX+AFfgHLTNM/Z76Fs79XmDJLPEA38es3cIHfvqJbeMAscLpwiegYf6GjXzFgpZgwSnEcLV5jQBSbzjOqGM0naIFPTVQpnjv4bfYG8lWYYrN1hCoGVmzQMhMcMUqxsXSVXUYx9lDFGCPt6T1aZtp7jFLsLl/nLMRf7cDt6VdghXCZuSDuMDxbuU7EbOIQlv10xfgCiz1TZnrR6pVOiU3svANFMZikKca3Cfil9t8RZSY8VVyqf8wUmwn4OR2n/Ra+A7+FrQlTZo6VP94umU28QTubzeT29BH8Ejb9G2ILu5fqqzGK4WhqT/GGlLi3FaUQjJhic6tFMXCluGXKzCjuelPic+odoMXme8IKv6Nl5gC/Myecxl4vCvHPqTf087encEPqE0rhhgqlEAyYTbyCi02cofEJLjOMdREOYi73B0oxdvIqBqwUO5RSJC2wcUn8UOxco9/EsVoxHsfot/Bag1IIzLSnH5TXwh1S4p4UDanMjHgz77aFFhtVe4paF0GLUQpnpriUxCljaKDtaXOy2kX1J+Br/XeMdaFqSJcuTPy5nC14E1cVA1aK1pC5JSBNoNzTG7Sz+bFsaDz9AF/ZvsnkkCbBWOAe+ttnxQKHTe4J45C+RxbY2GVWuAeW0+X2FG5IW4x14a5YF2oYxciYt5nJ0lKVQjBziPb0HLUCxz8XLvETLTNNwuR205VCsM90NlnyNiJLY7qZfXSBbN6Gtqd/iw1aZlqZsjQEM4rxlrfhWZp+pRBQigGHpsLQgE3uQ/1KIZgxmwjnba8TGvfoFlJZWg8uM3OYvK3zi8rb8CztF1Nm4q0LNUzeRk5o4FMXzBYeJ1gXaqi8DTU0gp2nxhP65/AZpVjO0gDMTGi8KMZndAuNKYXATN62+Rt1n3JmaQhGDI0mukC91oUaTjHQTURpU0pBl5k5jAXeQS1wEP+AydJYpRBweRtaIiECziHNUGbmbBvJ2xCoLC3czrrARp+b0ECLTTrk1EXmLTSlGOkUoBQCptg4aHuaSusXcdXMZWZOxPjDw7aeYhNQUxfdjEoh2DeStyXDZWm4daGmBMUoSikEVN4GGxpJtHVMXTCcmZjQSICbusjWkMqMGMsGztti4bI0N3bqgoEZB3PgvC0ObuoiPUtDiFxmQiPIt4lBwExdODmVQrDNdDboAHEM7Wemm8nekC7BKIaXSzGCHeZLeKxrgY1dRvbhvE0FlaWFuRpSGSN5m2qBRrI0BGpC4zyzYuieumDYZ9zTzIpBjQH38jakMuQAcbZNDDSMAWfHTN4mYzBLQ2AscAe1wOUtPCSuQGZpCGYGiKUt1DMGnB0jedsCZrM0BOpE9Dnd2ZjO0hC4CQ1WMagsjZi6YDAzofGKuakLBsY97cAnoue0mTHgfA5pEpShQbWnVJamxbpQYy5v47I0rQ2pjCnFKF8pBNQA8RCd6Xv5d7rHgLOzzWziM6oYPnOCuavNulBC5m3YJhaXpSHsMlENmLdRWVrXmFII9E9oFDF1waD/RHTuE8y6ofI2wNCgDozkztIQuCMnqb8xqCzNsFII9E5oFDV1QaHzRLSeE8y6GTHfxNvkTaQc0tCAdaGGmtBIHAfTdYJZN1zelmCBBy0mS3MLUAoBY4EnTWhQUxeaTe4UiHNDjhf7GyNoMlmaU+QCqWdoeLEnon3m4WuhdpM7GSpvi1EM6uFrBTSkMiP83uImNMgsrTClEDAnotV5G5WlASeYddNnHvGmak+5hlR3loZATWgo8jYuSyuoIZXJl7eVnaUh5BsgLnAMODuMYnSWDI3WBfOjqWilEHATGlKx4bI0vVMXDFTeJikGpxSFNqQSXN62MKHBTV2YytIQmAmNxbyNy9IKbkhlshkadloXaqi87W1Cg5u6KK3MzKHOt73mbVSWVqB1oSZifgvPB4iDgMjStI0BZ4c/EW36BLNu6LzNriwNgcrbXhSDem68+SwNgZvQ8C2ZumCg8rbzf4s4wawb6sjJHvFvNR0YyQ+VtzE/KYrJ0hCYCQ0Cw1MXFFR7ilJyQyozMrGJ3cId0iSYcTB0gWU3pDKR/o9pkVkaAmNoQJRoXcSgexPdshe0AnMiGkDHCWbdaFUMq5RCwJyITl+hVUohoCY0kindulBDtacpWNOQyjB5WyLlZGkIVN4WT0lZGgJjaCRgh3WhZkNHsQltVAoB8wTiOIinAZcBM6ERQwlTFwwRcyJavYVmjhbqI7di2KsUgpztqZUNqQxzIlq1hVY2pDLUkZNlSpu6YKDytiUsyNIQmAHiJYodA84MNaEhb2GZUxcMzISGvIUWWhdqqLxtYQurUGbmMBMai1todUMqk6k9tbwhlclmaFSkzMzJkLfZlKUh0IphsXWhhjY0bLYu1JDuqaUOaRIRucJKNKQyVN5mX5aGwGxiWPbNZoI431b0uTRdwIZGBawLNXDeZmeWhgBOaFg2dcGAGRoVsS7UDJBN7JY/BpwDwALX+DTgMgAmNGycumBIVYzKKoUg/XxbhawLNSmGRqWsCzUp/wmf7VkaQmLeZn+WhpBgaFTOulCTkLdVIUtDiM3bKpGlIcRNaFg+dcFwqv6c9qqvFAJ13laZLA1B2Z5WvSGVUeRtFcrSEBSKsS5KIVgxNCpocifTX/6YumtUZuYsGRrVti6UyIqxVkohkCY0qjN1wbDQnq5NQyozW1jh2jSkMm+GxhpYF2r64bzYuOEalpk5r08gLuppwGXwxz2tvEOaxO6fFVZu6oJhGq5fQyoTudadYNbNwIJH6hhmPRzSJNZWCmtqampqampqampqaqrNf0nu73u6pXLjAAAAAElFTkSuQmCC;" parent="1" vertex="1">
          <mxGeometry x="230" y="300" width="40" height="40" as="geometry" />
        </mxCell>
        <mxCell id="598wJvT_sXEChFHmgaJK-2" value="client&lt;div&gt;&lt;br&gt;&lt;/div&gt;" style="shape=umlActor;verticalLabelPosition=bottom;verticalAlign=top;html=1;outlineConnect=0;" parent="1" vertex="1">
          <mxGeometry x="40" y="290" width="30" height="60" as="geometry" />
        </mxCell>
        <mxCell id="598wJvT_sXEChFHmgaJK-3" value="" style="endArrow=classic;html=1;rounded=0;entryX=0;entryY=0.5;entryDx=0;entryDy=0;" parent="1" target="mD_qEcfemP99iUePYK75-1" edge="1">
          <mxGeometry width="50" height="50" relative="1" as="geometry">
            <mxPoint x="80" y="330" as="sourcePoint" />
            <mxPoint x="440" y="380" as="targetPoint" />
          </mxGeometry>
        </mxCell>
        <mxCell id="598wJvT_sXEChFHmgaJK-6" value="" style="edgeStyle=orthogonalEdgeStyle;rounded=0;orthogonalLoop=1;jettySize=auto;html=1;" parent="1" source="598wJvT_sXEChFHmgaJK-4" target="mD_qEcfemP99iUePYK75-1" edge="1">
          <mxGeometry relative="1" as="geometry" />
        </mxCell>
        <mxCell id="598wJvT_sXEChFHmgaJK-4" value="Web Container" style="text;html=1;align=center;verticalAlign=middle;whiteSpace=wrap;rounded=0;" parent="1" vertex="1">
          <mxGeometry x="185" y="250" width="60" height="30" as="geometry" />
        </mxCell>
        <mxCell id="598wJvT_sXEChFHmgaJK-5" value="" style="rounded=0;whiteSpace=wrap;html=1;fillColor=#d5e8d4;strokeColor=#82b366;" parent="1" vertex="1">
          <mxGeometry x="730" y="180" width="170" height="90" as="geometry" />
        </mxCell>
        <mxCell id="598wJvT_sXEChFHmgaJK-7" value="Service Container #1" style="text;html=1;align=center;verticalAlign=middle;whiteSpace=wrap;rounded=0;" parent="1" vertex="1">
          <mxGeometry x="773.5" y="150" width="91" height="30" as="geometry" />
        </mxCell>
        <mxCell id="598wJvT_sXEChFHmgaJK-8" value="" style="endArrow=classic;html=1;rounded=0;exitX=1;exitY=0.5;exitDx=0;exitDy=0;entryX=-0.012;entryY=0.433;entryDx=0;entryDy=0;entryPerimeter=0;" parent="1" source="sWf0NImkzpk0HPIp3ehi-1" target="598wJvT_sXEChFHmgaJK-5" edge="1">
          <mxGeometry width="50" height="50" relative="1" as="geometry">
            <mxPoint x="390" y="430" as="sourcePoint" />
            <mxPoint x="440" y="380" as="targetPoint" />
          </mxGeometry>
        </mxCell>
        <mxCell id="598wJvT_sXEChFHmgaJK-10" value="" style="rounded=0;whiteSpace=wrap;html=1;fillColor=#d5e8d4;strokeColor=#82b366;" parent="1" vertex="1">
          <mxGeometry x="730" y="440" width="170" height="90" as="geometry" />
        </mxCell>
        <mxCell id="598wJvT_sXEChFHmgaJK-11" value="Service Container #2" style="text;html=1;align=center;verticalAlign=middle;whiteSpace=wrap;rounded=0;" parent="1" vertex="1">
          <mxGeometry x="771.5" y="400" width="87" height="30" as="geometry" />
        </mxCell>
        <mxCell id="598wJvT_sXEChFHmgaJK-13" value="" style="endArrow=classic;html=1;rounded=0;entryX=0;entryY=0.5;entryDx=0;entryDy=0;exitX=1;exitY=0.5;exitDx=0;exitDy=0;" parent="1" source="sWf0NImkzpk0HPIp3ehi-1" target="598wJvT_sXEChFHmgaJK-10" edge="1">
          <mxGeometry width="50" height="50" relative="1" as="geometry">
            <mxPoint x="310" y="335" as="sourcePoint" />
            <mxPoint x="422" y="229" as="targetPoint" />
          </mxGeometry>
        </mxCell>
        <mxCell id="598wJvT_sXEChFHmgaJK-14" value="" style="shape=image;verticalLabelPosition=bottom;labelBackgroundColor=default;verticalAlign=top;aspect=fixed;imageAspect=0;image=data:image/png,iVBORw0KGgoAAAANSUhEUgAAATYAAACjCAMAAAA3vsLfAAAAdVBMVEX///9tsz9rsjxpsTlkrzBosTf+//2Fv2Bkry/J4rra6tD6/Pjq8+R9u1SSxXW+3KygzYWp0ZGLwmhxtUZ8ulby+O7w9+u62qeOw23m8t/E3rR3uE3V6MrQ5sOYyHrg7tex1Zykzoqw1ZpfrSWbyX9crB2Iv2i77q+wAAATeElEQVR4nO1d6ZKjvA4NXoBAVgjZSEKWvt/7P+JlseVNhsx0kq6e4vyYmnSIsQ+yLMmymExGjBgxYsSIESNGjBgxYsSIESNGjBgxYsRbMM3mX8lPd+K3IVzElHC2/Ol+/DLs4qAGYdVPd+RXISxJQ1vAbz/dk1+F9NGyFtDFT/fkVyEkQtq+fronvwtfvKUtPv90R34XtjknhLCv8Kc78suwveR5uUt/uhu/D+l2FLURI0aMeDGKKvkDVNt39CHdzop3tOtHOKthLsTh810Iz5eA8j8ByY5PNl/tLps8z+f79fFgdLCqjYcLOOHFdDUPaqs/z+4n26AId5s8WooVc7tclPn82l2T3ud5Jo3dtL4sm8ofzY6rqMzz6LLzOPphco/qO9b3jK5wyXYVBJvjcyM7zznt3JTnQVn+hL2UHjec0aZvpH4sZH5TQzjR2lTl/NR+KO45462r1Fw33xmPJFwwMGqLW9C2x/bNzdN5/Q2Nr9299u2HdfshWdRty/tGiBfR9Ky7Y3NLmnVBu1lrP4s2Bob2xf6Us6CL10SHgaZPG7PpeijRtCO72ND2L0Hz4VxyYrRcTrVWlqxzoZb1hbm8kDUicRfftGPuokitp5WuOTce8WI20DPK181TWXQ/48ORzyJif0Nae6+8v/klp+5vWNRKXNUNMnjU4nbl9nMjbKUEbt+1QrOaQLiQX2oxzLXAURh1l/HVpNjbQ+Jz4wmHV7dnLCsmhSCb34dYSyNuN/A8aN4nb0dcimnQMDIVtLHpZI09N55J3sJ51wyJTrHWyr6JgIj/N4GjVFxG90XmDonOtUUsXaF3nKdbSdtqiDa0z0+DRn7XpiLAGiE6gWzX0Cbuy6ZLvAfAm6QtKDdaK83IUNrI/gsTBK7F5FDWmjtuqWq8F9U3ZK1BSwEOoScahZaXebMyyO7dNNroRfy50d3GyiQHCrQF2pekUT8obXAZMWWdwbpw1Vhr7ypvyy/y1gO0hXtX+/wRSOCzQ+QDIcG12haz6ngphUIxpC0QGoluvtbXVRZoE1s8EkWbPtbrxEtbewmjeR5wTWnSSHQsUZJCeJCtd7v1Xqw0kowh2s7fmqLtHXxx/HvXO5LDIlZMs/q51l0tdNq67n9V3QI7W+YwKkJnGG3tWNtlxUsb4ZtdVRuyp3WgxIJ3ejjdwJ8ouYrObZelPu0GaEs3qNL+I8SeVWEhREs3JSanPSFZ21WdNlpqK3J6gQE0q6VDGy+X8kH4aCNU2sb1ogqtCeE9wo15pC0TxZfWoQHadt8WttYuQJ9I1I2CWW5YISa1RhuPzIl+VwObObTFa2Vk+2ijJ601qWLlLIXLeGYuZ1e1TvfTNgu+L2y15YVG8qUgM48wKtpIbqtHWAo7DabTFuvC66EtNrabi1wuEWVD0wlYnNtGwE09rl7aVt9cRmV3+mjzbcYp2h6Oz5iWRGtap+1hTHmcNmIZRTClaKGPmbvPswRB7KPtu8aHRIwlE4SZ0Lxsj661QBvWRfiykVWNNm46izhtzPLEZ/DrmUYNtpSBOd1LW/ZN40OCcIyYG8wGukYmKjCDLSmwVDULima3WXKN08Yt/zOM5Bf1nWZyzBSLiwCnPbRNh4WNcMaeEEmORQxOms7n0c4mR9JGIuS3kzVXLSva+NS8CvcSSjswc5G2/0H1Cr/tbti5Sh0r0gEN1tPp6on4CKb3Q12YKadaUEunrdX6DqQ92SzTQBvJLUJw2jJH1UsyDhBNwZ/0pJLf+mm7DooR3bRsVGSYX0zvW7+jZmhT0obvqM+0NQFoc9QR7so7tK012uT/bQXYoRj0SbdPGB9Chs7x4JXshNzibEdnKFNbwUAbGnvdSi1Dddpshv+CNil5aIcnE0GKn7Zh44NCQko5LG4RFulN5vYEJ2yTmLQ97ABii0LekumT1FYFf0Eb6Dk8UpgP0PaE8cEhuLEYXnLxjMYm1m0RR8X0AGlDzWGMNtcs/o604bQNSZvH+CBcTSzFBNBGOHcCseKbEo+EzHYb6yekM1mBNnS2zHJJlUbb3Nma+YZuw12bAd029QTqNvfdQsa8XNpoeT+uS1xOmW/bIk3WEWFaII20hhWEKVHdDFGnSKPNsSz+gjYwMdCw96HfAAlRbUVY6yYnYgV0aKOtvV8scMqpPz4eHpZZoGTOClNiv1hqlsBLaQPLZo/d9thPGxr5IFw8eDEimzaInN1R3jg6fsBsOZfEtaFNFabEFhMp302w56W0gRjn2AZ51jtJC8yiIBBuCXFpo9DWDrVIPGu6wlLO1GaDTjlXyCyF0EyjuV9KWyrjIRxZww4PKQIobTdMPcVqbematmnT7HmUN9wI0SE9m8bTBNoc23+iWUeNKL6UNpBj7Lb73qA4kGqwppaWUMRlbWnTZuEVm6fDxyqE1dQsA9Oe4JaKiTUa6LW09URejrG/SxPc+Ii1HaglrtuMoMEFEVhDX6TXy8qZtWIAhrSZ925wAAemnfevpQ2ils5TPvVHdzFfSdfncrFxaCOl4k3byNBaUUZIsWGUsy/LBRCzwNBtzWfDGqhgYGQ+eTlt2oImckcE9M1whDYs8qFv28H8c+02QlTkJsH0IwFeu85xctOJk7qNby3LkUegWAsts6HbvnkxbUrcApZBfw+GWYXQhhkfmmK7gyyiXoISbMwMUZEQkZBBeLA4C+aKZaANzDS4Kc92yeFQnVdqvy/gnW31Ytq0ravmttdTVSXXPTGkwKUNi3xom08aGQhttUUM5kKBxeu4VGf/qc1IlkeX9X29gKyi1uRQdpsYbeODUd0Rk3biq2kz9LLI6pNukByG4/JgxocK3iw1vYfRVosP6PkjIm5kE7oNETNPoRs+hCnXOUK/fqeX01b4soX4XRp1V6sJLPKhHI1Ez8FAadPiEHIn1ID8UXrzBoU7A1GlziRoSiKBCLj0BF9G22S2QXmLl2BYWiZ4uEB+AOZ9GunLI06btuhiqUJqcTlvUOJIbAaO6h6eAndV5rlSt2I/hmwsOhRtF522vZc2WJ62e7dvpHbkIHxuxUewnI9umW9grhYe2pQ7scWml1IL6a5kNh8E6NAjIFVkjYKwvRYYED4D4vRGWi6OVFnMiW2IVDqSKz7Tq7kG1B0rz1o81gxLmOIkByrpsWjw0QapO3iEOFYmR3GMqJZ7Vas4spIWsRE4Sq+5ivMRzudHXWIOpPmOOsHd2qJ5NI3zsm00iZsPNHDCxV3mIzG3cw8XyuVmR5POc9sqg5dsTHWARj5Adi2PyUdbmzfaAt1kMEMyh92ibLYNa9A826khWfG27S4K5GVfZ0uJnUoWsxKLFBxJ/c1G7nnkzWXI3sQsq9slthQeruKWPIi6zCO5O2vZH+isApVhpx95aQPntEAXwYc1vnSWnGucKiP+64Ypt8l0uVyeKiQgkJ7OTta96ML5nIBkFvVleHZndT5rk+Ag/19UTc8SMQPA+LJiOWjkA5TRyRJFL21BLIYQopsMSlf2oT+6+04sySPeI1sJdxnhIGYoB992gai6TaqfNshZ23kW8ic6/2O0HRt9SONsaorvIQONY0UA8W0XqWlD2wzz0wZzH0/GJGjA1sKP0SbtlDjeL6tt29PicMweyq0xM5Y8Y5ThOkfx+WkDdXjAzW08U8DET9GWqmHSejkIyhr1f3Q/yFhUQjzhFChwprCftoAI7V54PAE76QfBj0mbGfFqzxcZfY/N/Bw00qO58faK0EebtM1Sz359T9q9xI/Rdo77cgyI3R9PqgxYE45n3keb0Ie+lGm6GDzAflanYD6M6cZxXtSYc9s69GQkPEPbxaFNNJ5mvj36wUVBqkU3BfXtSKd7NLmAMLp2cguweEUvbSp64pz5kG4pGgRpfzu8ll66+C+eZ/5mhNU14nFzSEIyRuplYX5HVLJHDUFA1slvgAhM6kzvh5ykvtTCePiMbrFvHJvsw8eVAelhetvPc9IFKcvoa4e5J1o+vgnIxnSWhEDu0q8d2uRhg9QTYnyGtkl6vl7PP1rEIyxmh/YI+2zrnR2+HCOZRnxwv6K7tG567Tjsytbz6FYS/DOFYDx5gBBXLJBZzMrLInetZDBaKtSCdry63wws9N8AjGJsqSUUi1jDYuHJ9/qX6tD5TgpJDfYHB7Aglc/VeuKCf6gymGeWggXiKjcPCBG/8Jptmx/V9K+FJzdchdifPZILmYhbj7DZgcrfDc8sBOXmmiAeVuR+gEdd/mOlIj0eJOjv8LlDWOp6j3hKRz88XhbXnzJnX4ihqGLyjLipg2kD0bY0iillyPnD16O6X+7v82094qFiJc9Ut1Ahb3RroqZVPIVuI4zmbxsOYMc45ez6tvYrPCwOI0P3US1Zgk3eGe5ZQTqDaOvxdnFL2s1pgp9weAlwAVF7DgefkwmsqZ1X3GiDfSt5bOr9NpwY1BtXIlxCNBcy6T/OxzcQW6lwewY2wuQhPfy8ySuRyWTP990CN0I0ZyjJe+apxppn2VV78p+jTabWvFGLeowQTS8cvBW2CFuonGZ8i1Q7C/NP0ebxvvUk7/SGx9p5cFU+k2cya2L7b9HmcaH4f1qo5xS5xHG+0JbELR4r1s8u/mO0VfhZZLbS3e9zRowMKxZc9KwJn6HCtY0+k7ZwdjqfT36XIW2SWE6znhBA28IZi1x/hDaPERLEZnbSYZeJBCvGg8XR2JxIkbpyDaieF6bTlnzxR1zjkWO1LSanddl+HT/44ogylx4XXFxSrs20lyKRkp8nJ09e0ivgi1vE9lsHwsNpejzWMmCPAU99teajoi1dQIIF4Y8ve2Tn8qG232jM3a3p9B4rrVE3kSniwstDbRc3rA6WR/xr+OKRT24jzZBU227IRkKgpI3ejPKatZI0HkO4eFgJqHFpSWRlx+XpYyW5v9hjebxtuzr0uQJ8oERni6k3GcA8iCtpc0gmOm9b5DA0MeN1R+SGTKqD/zmdeN+bOrwVKsT55R4UF291CyvPaOZ1NzQVmM7RM0jaIU1PZ7nY5HFp6z8N/C34PfY2YdqLdBl4KzrY54EN2tqqP+qs01VepA6kUKbVBdLa2kISedsGdFy8/8U5gf54YyqOxwjpOhf59nyL48ZTl6Hlwsqh1Gnj+Xo6vcN8JFSwApJE2H53Xt4oVAmDqaaOxga343m3hxnbJdgW2UMl5zOGLSgvBFpjVYDy+e7gMJcm67KHNPfsskYb6zR4CnUM7WKdRJxW2EJJRPnGrwTOYQvH7iTdE5HnH1ZTMECmx+S9+7Pb3hrihAXZ+jRLBXdhcTjfNrSPNMQZULSB6KRSdMT2s6qXJkOzslQz/EYmO9EMQtDArFw4PmPuthgqDFUrkmCTXVbr9dclm1PWz1lgVAPuALRpYamZ5CluRQfO6ihjSx5IF9pNvgBMX6XhLJB8Gh+kzZcHaVBHRS3f4UsD7oTygTY9tVLu/LeZntAHViBXtLIklZ++Pm5l9yRNH6TtmaJ3fwCk5gzQphd/kluEbTrEVnKim8ln/QqwzI2cS3lWVUrgJ2l7WYnFrsduMRIowRZof5RLeBtgkqJknN6cGfIlVRvTPQupYKRy+yhtnhTovwJWygJo08sZSl3Vnmw4olnPkrb/mg/y7LhRTEsKpNyl+ChtLyof23bYqXU10XxSfQqG+jsed9bwO8hTdu2hCiimpdMmF2D5sD5L22uKFbvjls3rZ2QlgLbmj3Ky4bS1HljeR5uc3J+lDS8d8xfAy2MDbfq3+CTFaOsmqdyUMmhLYvN3H6btiVqoTwGvkwi6TR8NLAnNygsnOnSHCJbX1hCU9jHXl5ydRfeHafMmQ/4ZPMXOlAGiKb6lztThgTQAJVbazRxp2uohEVVfUtiKn6bt2y+Z6CjA/UBl7mo2V6Ybs4VQrkaC9F0SZZRi1INSMlwIWcefpu0lVcV956uUc6VKxSfghLYjNnyGDqG8orNlt9LXKt2KvaA0P07bC4yQrpw+AuXKM7l5CqkUouiErPylnTWSbmq3IqizO1rBB9kImHuwY/6x9PTvGyHebVA9cNRV1kpKqRNErk4q784XQpigWI0UwCnIp0xkkvNc1a0DahsFWHwkD/G77+fAS2M2MMOU+/U6s8r1TDSW+Pw4285OEKtV0Tv1DoNFMtse1DtbmFMWmGyuX1FZDsX1X4FvGiHEjXxImEFxqhX0VZmFIZyJJYyWQaxq/sImDKjDgMZ5ySGUS5GMsWZLnJD4fXt+Cid/fPwJuCVeADPvKq0dRj/oFbTUFXpBOu0VLVoEi6hScbYd5VaDfgeWvad5B1jr2V2Ds/d2IJkQzXY9YYWQzDc23hA9Qom2JzgzA4KEfES9HZEXFD4Fwm49ORvyrGk8JWatH2LM68rZCyN2Fu7VSeThpbGhaxI7XJH1Najw2ldDpPG8fwO8K+JCo0mlFbInzHo70yRdGUeJKZs7ObiJkQFFOP8yw3tppg2AvjGH10LzitPu5atPotbw5dCRgzSKOWWNKZ9eA844pfU/c4Tqwy1vv66/ZwTfbjxnlIlLeHBzX1W0pu23zdebJzILXobquoj+ANn6idye5jjHsrssTJaXy+J29GSNh8lxvbgsVruT953O29NuVV+yPuKsFOfrpb7D9fyJYxAjRowYMWLEiBEjRowYMWLEiBEjRowYMWLEiBEjRowYMWLEiBEjRowYMeJF+D/HixDQvcn5AAAAAABJRU5ErkJggg==;" parent="1" vertex="1">
          <mxGeometry x="730" y="180" width="76.07" height="40" as="geometry" />
        </mxCell>
        <mxCell id="598wJvT_sXEChFHmgaJK-15" value="" style="shape=image;verticalLabelPosition=bottom;labelBackgroundColor=default;verticalAlign=top;aspect=fixed;imageAspect=0;image=data:image/png,iVBORw0KGgoAAAANSUhEUgAAATYAAACjCAMAAAA3vsLfAAAAdVBMVEX///9tsz9rsjxpsTlkrzBosTf+//2Fv2Bkry/J4rra6tD6/Pjq8+R9u1SSxXW+3KygzYWp0ZGLwmhxtUZ8ulby+O7w9+u62qeOw23m8t/E3rR3uE3V6MrQ5sOYyHrg7tex1Zykzoqw1ZpfrSWbyX9crB2Iv2i77q+wAAATeElEQVR4nO1d6ZKjvA4NXoBAVgjZSEKWvt/7P+JlseVNhsx0kq6e4vyYmnSIsQ+yLMmymExGjBgxYsSIESNGjBgxYsSIESNGjBgxYsRbMM3mX8lPd+K3IVzElHC2/Ol+/DLs4qAGYdVPd+RXISxJQ1vAbz/dk1+F9NGyFtDFT/fkVyEkQtq+fronvwtfvKUtPv90R34XtjknhLCv8Kc78suwveR5uUt/uhu/D+l2FLURI0aMeDGKKvkDVNt39CHdzop3tOtHOKthLsTh810Iz5eA8j8ByY5PNl/tLps8z+f79fFgdLCqjYcLOOHFdDUPaqs/z+4n26AId5s8WooVc7tclPn82l2T3ud5Jo3dtL4sm8ofzY6rqMzz6LLzOPphco/qO9b3jK5wyXYVBJvjcyM7zznt3JTnQVn+hL2UHjec0aZvpH4sZH5TQzjR2lTl/NR+KO45462r1Fw33xmPJFwwMGqLW9C2x/bNzdN5/Q2Nr9299u2HdfshWdRty/tGiBfR9Ky7Y3NLmnVBu1lrP4s2Bob2xf6Us6CL10SHgaZPG7PpeijRtCO72ND2L0Hz4VxyYrRcTrVWlqxzoZb1hbm8kDUicRfftGPuokitp5WuOTce8WI20DPK181TWXQ/48ORzyJif0Nae6+8v/klp+5vWNRKXNUNMnjU4nbl9nMjbKUEbt+1QrOaQLiQX2oxzLXAURh1l/HVpNjbQ+Jz4wmHV7dnLCsmhSCb34dYSyNuN/A8aN4nb0dcimnQMDIVtLHpZI09N55J3sJ51wyJTrHWyr6JgIj/N4GjVFxG90XmDonOtUUsXaF3nKdbSdtqiDa0z0+DRn7XpiLAGiE6gWzX0Cbuy6ZLvAfAm6QtKDdaK83IUNrI/gsTBK7F5FDWmjtuqWq8F9U3ZK1BSwEOoScahZaXebMyyO7dNNroRfy50d3GyiQHCrQF2pekUT8obXAZMWWdwbpw1Vhr7ypvyy/y1gO0hXtX+/wRSOCzQ+QDIcG12haz6ngphUIxpC0QGoluvtbXVRZoE1s8EkWbPtbrxEtbewmjeR5wTWnSSHQsUZJCeJCtd7v1Xqw0kowh2s7fmqLtHXxx/HvXO5LDIlZMs/q51l0tdNq67n9V3QI7W+YwKkJnGG3tWNtlxUsb4ZtdVRuyp3WgxIJ3ejjdwJ8ouYrObZelPu0GaEs3qNL+I8SeVWEhREs3JSanPSFZ21WdNlpqK3J6gQE0q6VDGy+X8kH4aCNU2sb1ogqtCeE9wo15pC0TxZfWoQHadt8WttYuQJ9I1I2CWW5YISa1RhuPzIl+VwObObTFa2Vk+2ijJ601qWLlLIXLeGYuZ1e1TvfTNgu+L2y15YVG8qUgM48wKtpIbqtHWAo7DabTFuvC66EtNrabi1wuEWVD0wlYnNtGwE09rl7aVt9cRmV3+mjzbcYp2h6Oz5iWRGtap+1hTHmcNmIZRTClaKGPmbvPswRB7KPtu8aHRIwlE4SZ0Lxsj661QBvWRfiykVWNNm46izhtzPLEZ/DrmUYNtpSBOd1LW/ZN40OCcIyYG8wGukYmKjCDLSmwVDULima3WXKN08Yt/zOM5Bf1nWZyzBSLiwCnPbRNh4WNcMaeEEmORQxOms7n0c4mR9JGIuS3kzVXLSva+NS8CvcSSjswc5G2/0H1Cr/tbti5Sh0r0gEN1tPp6on4CKb3Q12YKadaUEunrdX6DqQ92SzTQBvJLUJw2jJH1UsyDhBNwZ/0pJLf+mm7DooR3bRsVGSYX0zvW7+jZmhT0obvqM+0NQFoc9QR7so7tK012uT/bQXYoRj0SbdPGB9Chs7x4JXshNzibEdnKFNbwUAbGnvdSi1Dddpshv+CNil5aIcnE0GKn7Zh44NCQko5LG4RFulN5vYEJ2yTmLQ97ABii0LekumT1FYFf0Eb6Dk8UpgP0PaE8cEhuLEYXnLxjMYm1m0RR8X0AGlDzWGMNtcs/o604bQNSZvH+CBcTSzFBNBGOHcCseKbEo+EzHYb6yekM1mBNnS2zHJJlUbb3Nma+YZuw12bAd029QTqNvfdQsa8XNpoeT+uS1xOmW/bIk3WEWFaII20hhWEKVHdDFGnSKPNsSz+gjYwMdCw96HfAAlRbUVY6yYnYgV0aKOtvV8scMqpPz4eHpZZoGTOClNiv1hqlsBLaQPLZo/d9thPGxr5IFw8eDEimzaInN1R3jg6fsBsOZfEtaFNFabEFhMp302w56W0gRjn2AZ51jtJC8yiIBBuCXFpo9DWDrVIPGu6wlLO1GaDTjlXyCyF0EyjuV9KWyrjIRxZww4PKQIobTdMPcVqbematmnT7HmUN9wI0SE9m8bTBNoc23+iWUeNKL6UNpBj7Lb73qA4kGqwppaWUMRlbWnTZuEVm6fDxyqE1dQsA9Oe4JaKiTUa6LW09URejrG/SxPc+Ii1HaglrtuMoMEFEVhDX6TXy8qZtWIAhrSZ925wAAemnfevpQ2ils5TPvVHdzFfSdfncrFxaCOl4k3byNBaUUZIsWGUsy/LBRCzwNBtzWfDGqhgYGQ+eTlt2oImckcE9M1whDYs8qFv28H8c+02QlTkJsH0IwFeu85xctOJk7qNby3LkUegWAsts6HbvnkxbUrcApZBfw+GWYXQhhkfmmK7gyyiXoISbMwMUZEQkZBBeLA4C+aKZaANzDS4Kc92yeFQnVdqvy/gnW31Ytq0ravmttdTVSXXPTGkwKUNi3xom08aGQhttUUM5kKBxeu4VGf/qc1IlkeX9X29gKyi1uRQdpsYbeODUd0Rk3biq2kz9LLI6pNukByG4/JgxocK3iw1vYfRVosP6PkjIm5kE7oNETNPoRs+hCnXOUK/fqeX01b4soX4XRp1V6sJLPKhHI1Ez8FAadPiEHIn1ID8UXrzBoU7A1GlziRoSiKBCLj0BF9G22S2QXmLl2BYWiZ4uEB+AOZ9GunLI06btuhiqUJqcTlvUOJIbAaO6h6eAndV5rlSt2I/hmwsOhRtF522vZc2WJ62e7dvpHbkIHxuxUewnI9umW9grhYe2pQ7scWml1IL6a5kNh8E6NAjIFVkjYKwvRYYED4D4vRGWi6OVFnMiW2IVDqSKz7Tq7kG1B0rz1o81gxLmOIkByrpsWjw0QapO3iEOFYmR3GMqJZ7Vas4spIWsRE4Sq+5ivMRzudHXWIOpPmOOsHd2qJ5NI3zsm00iZsPNHDCxV3mIzG3cw8XyuVmR5POc9sqg5dsTHWARj5Adi2PyUdbmzfaAt1kMEMyh92ibLYNa9A826khWfG27S4K5GVfZ0uJnUoWsxKLFBxJ/c1G7nnkzWXI3sQsq9slthQeruKWPIi6zCO5O2vZH+isApVhpx95aQPntEAXwYc1vnSWnGucKiP+64Ypt8l0uVyeKiQgkJ7OTta96ML5nIBkFvVleHZndT5rk+Ag/19UTc8SMQPA+LJiOWjkA5TRyRJFL21BLIYQopsMSlf2oT+6+04sySPeI1sJdxnhIGYoB992gai6TaqfNshZ23kW8ic6/2O0HRt9SONsaorvIQONY0UA8W0XqWlD2wzz0wZzH0/GJGjA1sKP0SbtlDjeL6tt29PicMweyq0xM5Y8Y5ThOkfx+WkDdXjAzW08U8DET9GWqmHSejkIyhr1f3Q/yFhUQjzhFChwprCftoAI7V54PAE76QfBj0mbGfFqzxcZfY/N/Bw00qO58faK0EebtM1Sz359T9q9xI/Rdo77cgyI3R9PqgxYE45n3keb0Ie+lGm6GDzAflanYD6M6cZxXtSYc9s69GQkPEPbxaFNNJ5mvj36wUVBqkU3BfXtSKd7NLmAMLp2cguweEUvbSp64pz5kG4pGgRpfzu8ll66+C+eZ/5mhNU14nFzSEIyRuplYX5HVLJHDUFA1slvgAhM6kzvh5ykvtTCePiMbrFvHJvsw8eVAelhetvPc9IFKcvoa4e5J1o+vgnIxnSWhEDu0q8d2uRhg9QTYnyGtkl6vl7PP1rEIyxmh/YI+2zrnR2+HCOZRnxwv6K7tG567Tjsytbz6FYS/DOFYDx5gBBXLJBZzMrLInetZDBaKtSCdry63wws9N8AjGJsqSUUi1jDYuHJ9/qX6tD5TgpJDfYHB7Aglc/VeuKCf6gymGeWggXiKjcPCBG/8Jptmx/V9K+FJzdchdifPZILmYhbj7DZgcrfDc8sBOXmmiAeVuR+gEdd/mOlIj0eJOjv8LlDWOp6j3hKRz88XhbXnzJnX4ihqGLyjLipg2kD0bY0iillyPnD16O6X+7v82094qFiJc9Ut1Ahb3RroqZVPIVuI4zmbxsOYMc45ez6tvYrPCwOI0P3US1Zgk3eGe5ZQTqDaOvxdnFL2s1pgp9weAlwAVF7DgefkwmsqZ1X3GiDfSt5bOr9NpwY1BtXIlxCNBcy6T/OxzcQW6lwewY2wuQhPfy8ySuRyWTP990CN0I0ZyjJe+apxppn2VV78p+jTabWvFGLeowQTS8cvBW2CFuonGZ8i1Q7C/NP0ebxvvUk7/SGx9p5cFU+k2cya2L7b9HmcaH4f1qo5xS5xHG+0JbELR4r1s8u/mO0VfhZZLbS3e9zRowMKxZc9KwJn6HCtY0+k7ZwdjqfT36XIW2SWE6znhBA28IZi1x/hDaPERLEZnbSYZeJBCvGg8XR2JxIkbpyDaieF6bTlnzxR1zjkWO1LSanddl+HT/44ogylx4XXFxSrs20lyKRkp8nJ09e0ivgi1vE9lsHwsNpejzWMmCPAU99teajoi1dQIIF4Y8ve2Tn8qG232jM3a3p9B4rrVE3kSniwstDbRc3rA6WR/xr+OKRT24jzZBU227IRkKgpI3ejPKatZI0HkO4eFgJqHFpSWRlx+XpYyW5v9hjebxtuzr0uQJ8oERni6k3GcA8iCtpc0gmOm9b5DA0MeN1R+SGTKqD/zmdeN+bOrwVKsT55R4UF291CyvPaOZ1NzQVmM7RM0jaIU1PZ7nY5HFp6z8N/C34PfY2YdqLdBl4KzrY54EN2tqqP+qs01VepA6kUKbVBdLa2kISedsGdFy8/8U5gf54YyqOxwjpOhf59nyL48ZTl6Hlwsqh1Gnj+Xo6vcN8JFSwApJE2H53Xt4oVAmDqaaOxga343m3hxnbJdgW2UMl5zOGLSgvBFpjVYDy+e7gMJcm67KHNPfsskYb6zR4CnUM7WKdRJxW2EJJRPnGrwTOYQvH7iTdE5HnH1ZTMECmx+S9+7Pb3hrihAXZ+jRLBXdhcTjfNrSPNMQZULSB6KRSdMT2s6qXJkOzslQz/EYmO9EMQtDArFw4PmPuthgqDFUrkmCTXVbr9dclm1PWz1lgVAPuALRpYamZ5CluRQfO6ihjSx5IF9pNvgBMX6XhLJB8Gh+kzZcHaVBHRS3f4UsD7oTygTY9tVLu/LeZntAHViBXtLIklZ++Pm5l9yRNH6TtmaJ3fwCk5gzQphd/kluEbTrEVnKim8ln/QqwzI2cS3lWVUrgJ2l7WYnFrsduMRIowRZof5RLeBtgkqJknN6cGfIlVRvTPQupYKRy+yhtnhTovwJWygJo08sZSl3Vnmw4olnPkrb/mg/y7LhRTEsKpNyl+ChtLyof23bYqXU10XxSfQqG+jsed9bwO8hTdu2hCiimpdMmF2D5sD5L22uKFbvjls3rZ2QlgLbmj3Ky4bS1HljeR5uc3J+lDS8d8xfAy2MDbfq3+CTFaOsmqdyUMmhLYvN3H6btiVqoTwGvkwi6TR8NLAnNygsnOnSHCJbX1hCU9jHXl5ydRfeHafMmQ/4ZPMXOlAGiKb6lztThgTQAJVbazRxp2uohEVVfUtiKn6bt2y+Z6CjA/UBl7mo2V6Ybs4VQrkaC9F0SZZRi1INSMlwIWcefpu0lVcV956uUc6VKxSfghLYjNnyGDqG8orNlt9LXKt2KvaA0P07bC4yQrpw+AuXKM7l5CqkUouiErPylnTWSbmq3IqizO1rBB9kImHuwY/6x9PTvGyHebVA9cNRV1kpKqRNErk4q784XQpigWI0UwCnIp0xkkvNc1a0DahsFWHwkD/G77+fAS2M2MMOU+/U6s8r1TDSW+Pw4285OEKtV0Tv1DoNFMtse1DtbmFMWmGyuX1FZDsX1X4FvGiHEjXxImEFxqhX0VZmFIZyJJYyWQaxq/sImDKjDgMZ5ySGUS5GMsWZLnJD4fXt+Cid/fPwJuCVeADPvKq0dRj/oFbTUFXpBOu0VLVoEi6hScbYd5VaDfgeWvad5B1jr2V2Ds/d2IJkQzXY9YYWQzDc23hA9Qom2JzgzA4KEfES9HZEXFD4Fwm49ORvyrGk8JWatH2LM68rZCyN2Fu7VSeThpbGhaxI7XJH1Najw2ldDpPG8fwO8K+JCo0mlFbInzHo70yRdGUeJKZs7ObiJkQFFOP8yw3tppg2AvjGH10LzitPu5atPotbw5dCRgzSKOWWNKZ9eA844pfU/c4Tqwy1vv66/ZwTfbjxnlIlLeHBzX1W0pu23zdebJzILXobquoj+ANn6idye5jjHsrssTJaXy+J29GSNh8lxvbgsVruT953O29NuVV+yPuKsFOfrpb7D9fyJYxAjRowYMWLEiBEjRowYMWLEiBEjRowYMWLEiBEjRowYMWLEiBEjRowYMeJF+D/HixDQvcn5AAAAAABJRU5ErkJggg==;" parent="1" vertex="1">
          <mxGeometry x="730" y="440" width="76.07" height="40" as="geometry" />
        </mxCell>
        <mxCell id="598wJvT_sXEChFHmgaJK-16" value="" style="shape=image;verticalLabelPosition=bottom;labelBackgroundColor=default;verticalAlign=top;aspect=fixed;imageAspect=0;image=data:image/png,iVBORw0KGgoAAAANSUhEUgAAAOcAAADaCAMAAABqzqVhAAAAgVBMVEX///9tsz9rsjx5uVFosTdfrSZmsDNkry9hripkrzBpsTldrCL6/Pjw9+zX6c7k8N3r9OahzIidyoP1+vLe7daPw3DC3bLQ5cS42KZ+u1iCvV6z1aDH4LlwtETS5saVxnmJwGimzo+72aut0pilzo90tkvp8+OMwmy01aFSqACYx3zk1AGXAAAKgElEQVR4nO2daXOiTBeGpemNZnFjUURF0SRP/v8PfCEao7L0QgPvVPX1YWoqNWO47eWcPkszmxkMBoPBYDAYDAaDwWAwGAwGg8FgMBgMBoPB0Irnz4Ms3mx2u80mzg7hwpv6ibSzSIrIxoRS4uAfnPLvFF/zIptP/Wy6CDefDiWYAasGYNihNC2Cf31kveSbUczqCl/UYkqibD31s6qTRIRwNP7CHJpm/+SoLgpGBUXepRK0Cqd+alnCiOKGBckB0m0y9ZPLEKRIaij/AHSfTf30ooQplR/KP6Vk3zamwagyOCwiV3Es/8Z022hU12xsLR3s5DafFqVo1bD3Fu7H+HqaCfdOf5UVkNQmr+fgryk0NXBCPRbmGyh6G9IvDOxpZL2xuGJtKksgfNl3PGpZrj+VtieyPrtsE8Atnj7+VH6J+DyZugdLqldlBckfc9enFgAgnVJhhZdq2oBegfvF/RdEjCYAkIknrr+HQ8isbOnN5T0gsJ1dIJnWWZo7mpfmE+6PNABQOAspi6aUGZLhZJYGJp7NVhgef9S6U8p0h5RZCs0C18LVjrSC5DCdzAE22lfKEx76cY8OBC6nkjnX6AO14tzluWA/kcw1HEEm+3X4SusyTXzQ22s4nvAA8DdIlhG8mURnPpDdfAE9xtCnbBKX6ETGkPnkz2+BO0EANEEjyHSffaAC1w+mg+OPMZovMksjNoFl2Y6wB7lvw0fGtyy74YcToPcY35HRRePTDMZ8+MXJQE1T5jjxuDqHn7VOWt9bF5QdR5UZY0gpHtIbQpem33sFY4dxPT+IlzYiw2hlLUeTFUSThHHXh8ue6veKaN7iD4y/QP+YL7HeozYkrVpK1+97PGWevyhZP8JxXmbrC2sCdOxw7gCwRhC4Ds7Lzz1yXVRS/rnPl+fgJwoXbPUoBdTuTIyVFnToqF9wsUm5xz6XVAAGMSXXZfVoBw3ZFUAAJ6Z3HtjFTb4pbdtaQWljjuX+uOmZLQPE4obcSxe30eBowT8xXkkFo6zw1mkPZ5AJJbO94c6g88gVMZIAuyv/rLhKAaaRWMJ6C/AglSmLSLzaANJLspcXWn5D9kZ0d1lCNECQyFvK5eEhXtpSQgEkJD1L+Dix4+hPPyRMOqkJ92L6qq2auDgtDnKhkHIjOmlW6R01JjVLYQzCqoaxKmJ0rGt+2QQKh8k10Z0fDIEWxxWU44Zcst/mx+VpV9WkBnO/RzhrD4g+jSVnDaF25lC4LV2mucYtMtcbU+ifoYYUf8c6Fd64QKKxZCrqGf4BBK+GqeA6Y6zvaJb2Kx5hSGOdqf/6SQEFdqwpXN0vocBQrrPE9M1v/6AWcOhRx2/Ie40mTfUW0r7ljjz39l12n99EWPU5YEHd7kryrufuoAG67ad012enRUfdG2z6/oHpr70DKOqxTgNXXSVA2n3Pj+37T6I/jxuqR8XWPSYts/RnBaLa0Xv5vEnS94JHUVL1mADc6s9OfvxX++p2L7sktJSOaWf1xQmHOOhH9WrU86s1AEghYOT/n8kM/6svwOx9ZbnyhZyR8qxlVx263tk2JOqTmkuKZEutA+Vs319ViE5ityE9dqi73kiyDkUu5vGMO0Qz0Rqjho8NGtaWK2XPEuXV6RT8T5cnwjXjOWsptXNlfCPl4RymRj9BtGmYGnXKFCE3TQgxhgg1znwCQNPPm0snmfhXnatutnClTdwTKWsczrYSUeGls1DebOkQe23RVkTTNu1Et8JC9dSpPaBakSCLNjs6DXblByBowa+qu9AQGckqatC02c6qss2W5yBCVlS5ImiIUhfPAq2bW9x6oiIi62enOm3pAHG9LWvf3L5aHxSLLCBl4wl1CrzxWUpx2g6Wy/YgHeIP6Fp12g6QX64CVM02paLjrIH5tqVtF+NCtTdbLMtHge09Odv2iSdQLaa8PB3dxvNS2UfSHg7p8tpaTNETqidP7a7tT2IHtU8Sv2uBsZz38arWU7fPt6pkOh1rvtsL57lma1UfXnOrRVQZR9biIfyw6VxgvECnsnOrtefL+8lfdZ+xjp0LjOe0KJ/JqMZAwr2RtCmI8AenoKXxKPdHPbgkCNIXmg5uZZ+oM3zHi0hyjsLtTiMHV1s+ZXNbOqS7dYM3IJw0VvfqHkPn8TZQmNO0u+LYP06Hi7KboEnn/N7jDbu22grAsX+cqptCNYOt5/aGzb0rmG05Xxt/v+w+VijPWx0tmf5vnSfb82ZHx2HlTofH2EenhiKX+LeGkF25i4D/mKhzgtWSM6L0LnJZpL9TEdpcmQLmr3uCKdvPnh183ulR9oprGfo6Kd8L73ZclPvm26JVYmTgMRGJwC0Qc4Gn7Na5Vq5K6HH+DJ7aQajIvPgUODx26/SUS4aUHfkwfaqUFMrVCoUkOQ53RzSiG8UDaJA+dUcwsZihUGKEY+hWyqVuSN4j8rLrcwkztoWcjYPQHtJtV96rGySQruH5uLCXhjRXcMu2hKYcJ6IgspU1I9czvTjb7svUYViwXuQiNhK8cLJ6wa34/Ud+nNK324paWyDfCcUiHlw7p15qYkGhFRoWtvt+vah41aMn2FDL9VuUPb/ys7k9mX7yDep3qAL3W9j4itapcb845cRDCe3airzgZFNSv7kZ0K14bEm4VpZfQqCctrdebyF5+fKCIkWNjYaAyNwBexLeJfmZh9b8qaJQ71BsccuFv6VKGWskIVPAS+7VyfEapfvIlrbb2ovPkC1V17QSfzIRYy5ooFqgnzdHxAu/Iou23zdQtUBKxXy9XGKHFKkh6MzQ8GHuKYxXtksbb4u/i4TuVrgF8oZU+5dY71l3SJ8PpE6XlQMYWYXsNQ+FVPuXmMvyMeDlLMxB9pd0zCyw5NaSmMeifGhhmJCu/8qIm5/lExRhLtnLJ1SIMVPNDgL6GQfJCTYrBZCyY6IQzVa4n12gDuPGl4INBfhmO72oPscARNZFJfLpb67ytxRIxOQUqmvoY2t586hKC3ItVMLY1bFG4YUCMnWGc+l4GN79Pd/TbKia6HcKIhfZ8opURJY+wo7/8Q+k7/16Tj4/DBMj1y/JfcdbhHGRww4Pg4PkHWmSjTovVZK/wZfrMpkncbE6RlGelkRR9P29Wp6Kr3OcZUkSPEiSLN6cVlFqOYg6vJe1dCJVOi59N+hLXc1D59WhxIGQlQBQtdqzqtseVu8Mcm4d93cIcRxc/kNeuo8Plk0MSEaKnq/huIxx4WYzCnVMidRe9HxPjlhEbhBU6iRiGf/vafkXg1yvLkRHAVkHZ5kRhfn9f2VjXCzajEKL2U2ozCNDEPvlsTMa/KrqVqhym1Amc404cAjEOl69ogjq0Q0V9rJlo4Jk/KAavq31RSODAeR66BpYjnFpel8Y7l9geJC/ZmlshNMznXirvq+vGhYm2+DayrzX68iGBdBcYyfUQeFgPwaA7DV3WhxyNJ1/3gKj1wHeOvNxIq23Tk4AwCgf6jV8hxVAHYH28TQygmRD+pLMN0erOvTD2+F5bBjEDkX772yM10Gtw2x3Oub2+KTRZZeF//ALbg0Gg8FgMBgMBoPBYDAYDAaDwWAwGAwGg8FgMBgMBoPBYDAYDAaDYWT+B234oA0+V6a6AAAAAElFTkSuQmCC;" parent="1" vertex="1">
          <mxGeometry x="486.42" y="295" width="63.58" height="60" as="geometry" />
        </mxCell>
        <mxCell id="sWf0NImkzpk0HPIp3ehi-2" value="" style="endArrow=classic;html=1;rounded=0;entryX=0;entryY=0.5;entryDx=0;entryDy=0;" edge="1" parent="1" target="sWf0NImkzpk0HPIp3ehi-1">
          <mxGeometry width="50" height="50" relative="1" as="geometry">
            <mxPoint x="300" y="330" as="sourcePoint" />
            <mxPoint x="440" y="380" as="targetPoint" />
          </mxGeometry>
        </mxCell>
        <mxCell id="sWf0NImkzpk0HPIp3ehi-3" value="" style="shape=image;verticalLabelPosition=bottom;labelBackgroundColor=default;verticalAlign=top;aspect=fixed;imageAspect=0;image=data:image/png,iVBORw0KGgoAAAANSUhEUgAAATYAAACjCAMAAAA3vsLfAAAAdVBMVEX///9tsz9rsjxpsTlkrzBosTf+//2Fv2Bkry/J4rra6tD6/Pjq8+R9u1SSxXW+3KygzYWp0ZGLwmhxtUZ8ulby+O7w9+u62qeOw23m8t/E3rR3uE3V6MrQ5sOYyHrg7tex1Zykzoqw1ZpfrSWbyX9crB2Iv2i77q+wAAATeElEQVR4nO1d6ZKjvA4NXoBAVgjZSEKWvt/7P+JlseVNhsx0kq6e4vyYmnSIsQ+yLMmymExGjBgxYsSIESNGjBgxYsSIESNGjBgxYsRbMM3mX8lPd+K3IVzElHC2/Ol+/DLs4qAGYdVPd+RXISxJQ1vAbz/dk1+F9NGyFtDFT/fkVyEkQtq+fronvwtfvKUtPv90R34XtjknhLCv8Kc78suwveR5uUt/uhu/D+l2FLURI0aMeDGKKvkDVNt39CHdzop3tOtHOKthLsTh810Iz5eA8j8ByY5PNl/tLps8z+f79fFgdLCqjYcLOOHFdDUPaqs/z+4n26AId5s8WooVc7tclPn82l2T3ud5Jo3dtL4sm8ofzY6rqMzz6LLzOPphco/qO9b3jK5wyXYVBJvjcyM7zznt3JTnQVn+hL2UHjec0aZvpH4sZH5TQzjR2lTl/NR+KO45462r1Fw33xmPJFwwMGqLW9C2x/bNzdN5/Q2Nr9299u2HdfshWdRty/tGiBfR9Ky7Y3NLmnVBu1lrP4s2Bob2xf6Us6CL10SHgaZPG7PpeijRtCO72ND2L0Hz4VxyYrRcTrVWlqxzoZb1hbm8kDUicRfftGPuokitp5WuOTce8WI20DPK181TWXQ/48ORzyJif0Nae6+8v/klp+5vWNRKXNUNMnjU4nbl9nMjbKUEbt+1QrOaQLiQX2oxzLXAURh1l/HVpNjbQ+Jz4wmHV7dnLCsmhSCb34dYSyNuN/A8aN4nb0dcimnQMDIVtLHpZI09N55J3sJ51wyJTrHWyr6JgIj/N4GjVFxG90XmDonOtUUsXaF3nKdbSdtqiDa0z0+DRn7XpiLAGiE6gWzX0Cbuy6ZLvAfAm6QtKDdaK83IUNrI/gsTBK7F5FDWmjtuqWq8F9U3ZK1BSwEOoScahZaXebMyyO7dNNroRfy50d3GyiQHCrQF2pekUT8obXAZMWWdwbpw1Vhr7ypvyy/y1gO0hXtX+/wRSOCzQ+QDIcG12haz6ngphUIxpC0QGoluvtbXVRZoE1s8EkWbPtbrxEtbewmjeR5wTWnSSHQsUZJCeJCtd7v1Xqw0kowh2s7fmqLtHXxx/HvXO5LDIlZMs/q51l0tdNq67n9V3QI7W+YwKkJnGG3tWNtlxUsb4ZtdVRuyp3WgxIJ3ejjdwJ8ouYrObZelPu0GaEs3qNL+I8SeVWEhREs3JSanPSFZ21WdNlpqK3J6gQE0q6VDGy+X8kH4aCNU2sb1ogqtCeE9wo15pC0TxZfWoQHadt8WttYuQJ9I1I2CWW5YISa1RhuPzIl+VwObObTFa2Vk+2ijJ601qWLlLIXLeGYuZ1e1TvfTNgu+L2y15YVG8qUgM48wKtpIbqtHWAo7DabTFuvC66EtNrabi1wuEWVD0wlYnNtGwE09rl7aVt9cRmV3+mjzbcYp2h6Oz5iWRGtap+1hTHmcNmIZRTClaKGPmbvPswRB7KPtu8aHRIwlE4SZ0Lxsj661QBvWRfiykVWNNm46izhtzPLEZ/DrmUYNtpSBOd1LW/ZN40OCcIyYG8wGukYmKjCDLSmwVDULima3WXKN08Yt/zOM5Bf1nWZyzBSLiwCnPbRNh4WNcMaeEEmORQxOms7n0c4mR9JGIuS3kzVXLSva+NS8CvcSSjswc5G2/0H1Cr/tbti5Sh0r0gEN1tPp6on4CKb3Q12YKadaUEunrdX6DqQ92SzTQBvJLUJw2jJH1UsyDhBNwZ/0pJLf+mm7DooR3bRsVGSYX0zvW7+jZmhT0obvqM+0NQFoc9QR7so7tK012uT/bQXYoRj0SbdPGB9Chs7x4JXshNzibEdnKFNbwUAbGnvdSi1Dddpshv+CNil5aIcnE0GKn7Zh44NCQko5LG4RFulN5vYEJ2yTmLQ97ABii0LekumT1FYFf0Eb6Dk8UpgP0PaE8cEhuLEYXnLxjMYm1m0RR8X0AGlDzWGMNtcs/o604bQNSZvH+CBcTSzFBNBGOHcCseKbEo+EzHYb6yekM1mBNnS2zHJJlUbb3Nma+YZuw12bAd029QTqNvfdQsa8XNpoeT+uS1xOmW/bIk3WEWFaII20hhWEKVHdDFGnSKPNsSz+gjYwMdCw96HfAAlRbUVY6yYnYgV0aKOtvV8scMqpPz4eHpZZoGTOClNiv1hqlsBLaQPLZo/d9thPGxr5IFw8eDEimzaInN1R3jg6fsBsOZfEtaFNFabEFhMp302w56W0gRjn2AZ51jtJC8yiIBBuCXFpo9DWDrVIPGu6wlLO1GaDTjlXyCyF0EyjuV9KWyrjIRxZww4PKQIobTdMPcVqbematmnT7HmUN9wI0SE9m8bTBNoc23+iWUeNKL6UNpBj7Lb73qA4kGqwppaWUMRlbWnTZuEVm6fDxyqE1dQsA9Oe4JaKiTUa6LW09URejrG/SxPc+Ii1HaglrtuMoMEFEVhDX6TXy8qZtWIAhrSZ925wAAemnfevpQ2ils5TPvVHdzFfSdfncrFxaCOl4k3byNBaUUZIsWGUsy/LBRCzwNBtzWfDGqhgYGQ+eTlt2oImckcE9M1whDYs8qFv28H8c+02QlTkJsH0IwFeu85xctOJk7qNby3LkUegWAsts6HbvnkxbUrcApZBfw+GWYXQhhkfmmK7gyyiXoISbMwMUZEQkZBBeLA4C+aKZaANzDS4Kc92yeFQnVdqvy/gnW31Ytq0ravmttdTVSXXPTGkwKUNi3xom08aGQhttUUM5kKBxeu4VGf/qc1IlkeX9X29gKyi1uRQdpsYbeODUd0Rk3biq2kz9LLI6pNukByG4/JgxocK3iw1vYfRVosP6PkjIm5kE7oNETNPoRs+hCnXOUK/fqeX01b4soX4XRp1V6sJLPKhHI1Ez8FAadPiEHIn1ID8UXrzBoU7A1GlziRoSiKBCLj0BF9G22S2QXmLl2BYWiZ4uEB+AOZ9GunLI06btuhiqUJqcTlvUOJIbAaO6h6eAndV5rlSt2I/hmwsOhRtF522vZc2WJ62e7dvpHbkIHxuxUewnI9umW9grhYe2pQ7scWml1IL6a5kNh8E6NAjIFVkjYKwvRYYED4D4vRGWi6OVFnMiW2IVDqSKz7Tq7kG1B0rz1o81gxLmOIkByrpsWjw0QapO3iEOFYmR3GMqJZ7Vas4spIWsRE4Sq+5ivMRzudHXWIOpPmOOsHd2qJ5NI3zsm00iZsPNHDCxV3mIzG3cw8XyuVmR5POc9sqg5dsTHWARj5Adi2PyUdbmzfaAt1kMEMyh92ibLYNa9A826khWfG27S4K5GVfZ0uJnUoWsxKLFBxJ/c1G7nnkzWXI3sQsq9slthQeruKWPIi6zCO5O2vZH+isApVhpx95aQPntEAXwYc1vnSWnGucKiP+64Ypt8l0uVyeKiQgkJ7OTta96ML5nIBkFvVleHZndT5rk+Ag/19UTc8SMQPA+LJiOWjkA5TRyRJFL21BLIYQopsMSlf2oT+6+04sySPeI1sJdxnhIGYoB992gai6TaqfNshZ23kW8ic6/2O0HRt9SONsaorvIQONY0UA8W0XqWlD2wzz0wZzH0/GJGjA1sKP0SbtlDjeL6tt29PicMweyq0xM5Y8Y5ThOkfx+WkDdXjAzW08U8DET9GWqmHSejkIyhr1f3Q/yFhUQjzhFChwprCftoAI7V54PAE76QfBj0mbGfFqzxcZfY/N/Bw00qO58faK0EebtM1Sz359T9q9xI/Rdo77cgyI3R9PqgxYE45n3keb0Ie+lGm6GDzAflanYD6M6cZxXtSYc9s69GQkPEPbxaFNNJ5mvj36wUVBqkU3BfXtSKd7NLmAMLp2cguweEUvbSp64pz5kG4pGgRpfzu8ll66+C+eZ/5mhNU14nFzSEIyRuplYX5HVLJHDUFA1slvgAhM6kzvh5ykvtTCePiMbrFvHJvsw8eVAelhetvPc9IFKcvoa4e5J1o+vgnIxnSWhEDu0q8d2uRhg9QTYnyGtkl6vl7PP1rEIyxmh/YI+2zrnR2+HCOZRnxwv6K7tG567Tjsytbz6FYS/DOFYDx5gBBXLJBZzMrLInetZDBaKtSCdry63wws9N8AjGJsqSUUi1jDYuHJ9/qX6tD5TgpJDfYHB7Aglc/VeuKCf6gymGeWggXiKjcPCBG/8Jptmx/V9K+FJzdchdifPZILmYhbj7DZgcrfDc8sBOXmmiAeVuR+gEdd/mOlIj0eJOjv8LlDWOp6j3hKRz88XhbXnzJnX4ihqGLyjLipg2kD0bY0iillyPnD16O6X+7v82094qFiJc9Ut1Ahb3RroqZVPIVuI4zmbxsOYMc45ez6tvYrPCwOI0P3US1Zgk3eGe5ZQTqDaOvxdnFL2s1pgp9weAlwAVF7DgefkwmsqZ1X3GiDfSt5bOr9NpwY1BtXIlxCNBcy6T/OxzcQW6lwewY2wuQhPfy8ySuRyWTP990CN0I0ZyjJe+apxppn2VV78p+jTabWvFGLeowQTS8cvBW2CFuonGZ8i1Q7C/NP0ebxvvUk7/SGx9p5cFU+k2cya2L7b9HmcaH4f1qo5xS5xHG+0JbELR4r1s8u/mO0VfhZZLbS3e9zRowMKxZc9KwJn6HCtY0+k7ZwdjqfT36XIW2SWE6znhBA28IZi1x/hDaPERLEZnbSYZeJBCvGg8XR2JxIkbpyDaieF6bTlnzxR1zjkWO1LSanddl+HT/44ogylx4XXFxSrs20lyKRkp8nJ09e0ivgi1vE9lsHwsNpejzWMmCPAU99teajoi1dQIIF4Y8ve2Tn8qG232jM3a3p9B4rrVE3kSniwstDbRc3rA6WR/xr+OKRT24jzZBU227IRkKgpI3ejPKatZI0HkO4eFgJqHFpSWRlx+XpYyW5v9hjebxtuzr0uQJ8oERni6k3GcA8iCtpc0gmOm9b5DA0MeN1R+SGTKqD/zmdeN+bOrwVKsT55R4UF291CyvPaOZ1NzQVmM7RM0jaIU1PZ7nY5HFp6z8N/C34PfY2YdqLdBl4KzrY54EN2tqqP+qs01VepA6kUKbVBdLa2kISedsGdFy8/8U5gf54YyqOxwjpOhf59nyL48ZTl6Hlwsqh1Gnj+Xo6vcN8JFSwApJE2H53Xt4oVAmDqaaOxga343m3hxnbJdgW2UMl5zOGLSgvBFpjVYDy+e7gMJcm67KHNPfsskYb6zR4CnUM7WKdRJxW2EJJRPnGrwTOYQvH7iTdE5HnH1ZTMECmx+S9+7Pb3hrihAXZ+jRLBXdhcTjfNrSPNMQZULSB6KRSdMT2s6qXJkOzslQz/EYmO9EMQtDArFw4PmPuthgqDFUrkmCTXVbr9dclm1PWz1lgVAPuALRpYamZ5CluRQfO6ihjSx5IF9pNvgBMX6XhLJB8Gh+kzZcHaVBHRS3f4UsD7oTygTY9tVLu/LeZntAHViBXtLIklZ++Pm5l9yRNH6TtmaJ3fwCk5gzQphd/kluEbTrEVnKim8ln/QqwzI2cS3lWVUrgJ2l7WYnFrsduMRIowRZof5RLeBtgkqJknN6cGfIlVRvTPQupYKRy+yhtnhTovwJWygJo08sZSl3Vnmw4olnPkrb/mg/y7LhRTEsKpNyl+ChtLyof23bYqXU10XxSfQqG+jsed9bwO8hTdu2hCiimpdMmF2D5sD5L22uKFbvjls3rZ2QlgLbmj3Ky4bS1HljeR5uc3J+lDS8d8xfAy2MDbfq3+CTFaOsmqdyUMmhLYvN3H6btiVqoTwGvkwi6TR8NLAnNygsnOnSHCJbX1hCU9jHXl5ydRfeHafMmQ/4ZPMXOlAGiKb6lztThgTQAJVbazRxp2uohEVVfUtiKn6bt2y+Z6CjA/UBl7mo2V6Ybs4VQrkaC9F0SZZRi1INSMlwIWcefpu0lVcV956uUc6VKxSfghLYjNnyGDqG8orNlt9LXKt2KvaA0P07bC4yQrpw+AuXKM7l5CqkUouiErPylnTWSbmq3IqizO1rBB9kImHuwY/6x9PTvGyHebVA9cNRV1kpKqRNErk4q784XQpigWI0UwCnIp0xkkvNc1a0DahsFWHwkD/G77+fAS2M2MMOU+/U6s8r1TDSW+Pw4285OEKtV0Tv1DoNFMtse1DtbmFMWmGyuX1FZDsX1X4FvGiHEjXxImEFxqhX0VZmFIZyJJYyWQaxq/sImDKjDgMZ5ySGUS5GMsWZLnJD4fXt+Cid/fPwJuCVeADPvKq0dRj/oFbTUFXpBOu0VLVoEi6hScbYd5VaDfgeWvad5B1jr2V2Ds/d2IJkQzXY9YYWQzDc23hA9Qom2JzgzA4KEfES9HZEXFD4Fwm49ORvyrGk8JWatH2LM68rZCyN2Fu7VSeThpbGhaxI7XJH1Najw2ldDpPG8fwO8K+JCo0mlFbInzHo70yRdGUeJKZs7ObiJkQFFOP8yw3tppg2AvjGH10LzitPu5atPotbw5dCRgzSKOWWNKZ9eA844pfU/c4Tqwy1vv66/ZwTfbjxnlIlLeHBzX1W0pu23zdebJzILXobquoj+ANn6idye5jjHsrssTJaXy+J29GSNh8lxvbgsVruT953O29NuVV+yPuKsFOfrpb7D9fyJYxAjRowYMWLEiBEjRowYMWLEiBEjRowYMWLEiBEjRowYMWLEiBEjRowYMeJF+D/HixDQvcn5AAAAAABJRU5ErkJggg==;" vertex="1" parent="1">
          <mxGeometry x="399.99999999999994" y="305" width="76.07" height="40" as="geometry" />
        </mxCell>
        <mxCell id="sWf0NImkzpk0HPIp3ehi-4" value="Gateway Container #2" style="text;html=1;align=center;verticalAlign=middle;whiteSpace=wrap;rounded=0;" vertex="1" parent="1">
          <mxGeometry x="426.5" y="250" width="87" height="30" as="geometry" />
        </mxCell>
      </root>
    </mxGraphModel>
  </diagram>
</mxfile>
